<?xml version="1.0" encoding="utf-8"?>
<!-- Generator: Adobe Illustrator 16.0.0, SVG Export Plug-In . SVG Version: 6.00 Build 0)  -->
<!DOCTYPE svg PUBLIC "-//W3C//DTD SVG 1.1//EN" "http://www.w3.org/Graphics/SVG/1.1/DTD/svg11.dtd">
<svg version="1.1" id="Layer_1" xmlns="http://www.w3.org/2000/svg" xmlns:xlink="http://www.w3.org/1999/xlink" x="0px" y="0px"
	 width="100px" height="100px" viewBox="0 0 100 100" enable-background="new 0 0 100 100" xml:space="preserve">
<g>
	<path fill="#F4F4F4" stroke="#000000" stroke-width="0.5" stroke-miterlimit="10" d="M25.223,56.094
		c-0.765-0.051-1.734-0.051-2.856,0.051c1.02,4.742-5.15,9.281-7.751,9.995c-1.122,0.306-2.397,0.561-3.774,0.561
		c-1.785,0-3.519-0.407-5.099-1.632c-1.938-1.377-3.57-3.723-3.57-7.955c0-10.862,10.352-20.5,16.114-22.489
		c1.479-0.51,2.601-0.612,3.723-0.612c1.326,0,2.601,0.357,3.468,0.969c2.448,1.785,3.111,4.182,3.111,5.559
		c0,0.765-0.204,1.683-0.663,2.754c-0.561,1.326-1.377,3.314-1.938,4.793c-0.255,0.663-0.867,1.173-1.835,0.408
		c-0.969-0.765-1.836-1.785-1.836-3.366c0-0.561,0.051-1.122,0.459-2.192c1.428-3.672,1.938-5.1,1.377-5.661
		c-1.479-1.53-9.128,2.855-13.718,9.842c-2.703,4.131-3.672,8.466-3.672,11.729c0,3.926,1.275,5.252,2.907,5.252
		c2.703,0,6.324-2.805,8.72-7.292c-1.326,0.255-2.55,0.407-3.569,0.51c-2.652,0.204-4.59-0.969-5.354-2.55
		c-0.306-0.765-0.051-1.275,0.969-1.275c2.04-0.051,4.08-0.407,5.966-0.764c1.734-0.256,3.315-0.562,4.845-0.562
		c2.805-0.052,4.334,1.122,5.048,2.753C26.6,55.686,26.65,56.195,25.223,56.094z"/>
	<path fill="#F4F4F4" stroke="#000000" stroke-width="0.5" stroke-miterlimit="10" d="M35.118,58.898
		c-1.224,0-2.448-0.357-3.621-1.122c-0.306,1.021-0.459,2.091-0.459,3.009c0,2.244,0.918,3.824,2.448,3.824
		c3.875,0,7.292-3.773,9.383-6.936c0.562-0.815,1.224-0.918,1.632,0.103c0.153,0.459,0.204,1.938-0.714,3.314
		c-2.142,3.11-6.221,5.508-10.199,5.559c-4.743,0.051-7.343-3.06-7.343-7.14c0-1.836,0.51-3.824,1.581-5.864
		c2.652-5.405,6.783-8.108,9.74-8.108c0.714,0,1.275,0.102,1.785,0.408c1.428,0.816,2.448,1.632,3.162,2.652
		c0.306,0.459,0.51,1.224,0.51,1.887C43.022,53.544,39.605,58.898,35.118,58.898z M32.211,55.838
		c0.408,0.256,0.765,0.357,1.122,0.357c1.224,0,2.855-1.529,3.875-2.906c1.479-1.989,2.55-4.386,1.989-4.845
		C38.433,47.833,34.659,50.943,32.211,55.838z"/>
	<path fill="#F4F4F4" stroke="#000000" stroke-width="0.5" stroke-miterlimit="10" d="M43.329,56.654
		c1.021-2.498,2.958-6.527,4.998-10.199c-1.581-0.204-2.499-0.765-2.907-1.377c-0.714-1.071-0.204-1.581,0.97-1.53
		c1.173,0.051,2.549,0,3.671-0.102c1.581-2.754,2.652-4.437,3.825-6.12c0.765-1.122,1.377-1.071,1.938-0.102
		c0.357,0.612,0.561,1.479,0.561,2.091c0,0.917-0.203,2.09-0.815,3.519c1.581,0.204,2.447,1.02,2.805,1.632
		c0.51,0.918,0.153,1.53-1.071,1.377c-0.918-0.102-2.243,0-3.365,0.153c-1.938,3.314-4.845,8.363-6.63,12.239
		c-0.611,1.377-0.917,2.702-0.917,3.825c0,1.529,0.51,2.6,1.376,2.6c1.989,0,4.641-3.213,6.426-7.037
		c0.561-1.224,1.733-1.326,2.091,0.051c0.255,1.071,0.051,1.836-0.51,3.01c-0.714,1.529-4.131,5.915-8.414,5.915
		c-2.703,0-5.049-2.192-5.049-5.712C42.31,59.766,42.615,58.338,43.329,56.654z"/>
	<path fill="#F4F4F4" stroke="#000000" stroke-width="0.5" stroke-miterlimit="10" d="M52.815,60.479
		c1.479-4.334,6.63-14.023,11.117-21.213c-1.173-0.663-1.733-1.683-1.938-2.601c-0.153-0.663,0.152-0.969,1.121-0.969
		c2.958,0,5.151-0.306,7.599-0.714c1.785-0.306,3.468-0.51,4.691-0.51c2.448,0,3.876,1.02,4.59,2.754
		c0.255,0.561,0,1.122-1.071,1.122c-2.601-0.051-5.1,0.51-9.995,1.377c-1.683,2.805-3.671,6.323-6.068,10.709
		c0.97-0.153,1.684-0.204,2.448-0.255c2.906-0.204,4.283,0.867,4.742,2.499c0.204,0.714,0.103,1.173-1.02,1.274
		c-2.346,0.205-5.967,0.664-8.771,1.377c-1.887,3.672-3.365,6.834-5.15,10.658c-0.306,0.663-1.02,0.816-1.733,0.357
		s-1.173-1.53-1.173-2.754C52.204,62.824,52.408,61.754,52.815,60.479z"/>
	<path fill="#F4F4F4" stroke="#000000" stroke-width="0.5" stroke-miterlimit="10" d="M73.674,66.599
		c-3.11,0-4.487-1.785-4.487-4.335c0-0.969,0.204-2.039,0.611-3.365c1.275-3.57,4.539-9.485,6.426-12.137
		c0.765-1.02,1.377-1.122,2.04-0.357c0.969,1.02,1.377,3.213,0.051,5.763c-0.969,2.192-3.314,6.017-4.182,8.058
		c-0.459,1.172-0.714,2.243-0.714,3.059c0,0.816,0.204,1.275,0.765,1.275c2.04,0,4.691-3.416,6.272-6.885
		c0.408-0.918,1.071-0.815,1.53,0.103c0.459,0.866,0.407,2.142-0.255,3.468C80.201,64.457,76.683,66.599,73.674,66.599z
		 M80.201,40.591c1.428,0,2.805,1.836,2.805,3.315c0,1.377-0.765,2.55-2.04,2.55c-1.632,0-3.009-1.53-3.009-3.111
		C77.957,41.917,79.028,40.591,80.201,40.591z"/>
	<path fill="#F4F4F4" stroke="#000000" stroke-width="0.5" stroke-miterlimit="10" d="M80.967,56.654
		c1.021-2.498,2.958-6.527,4.998-10.199c-1.581-0.204-2.499-0.765-2.907-1.377c-0.714-1.071-0.203-1.581,0.97-1.53
		c1.173,0.051,2.549,0,3.671-0.102c1.581-2.754,2.652-4.437,3.825-6.12c0.765-1.122,1.377-1.071,1.938-0.102
		c0.357,0.612,0.561,1.479,0.561,2.091c0,0.917-0.203,2.09-0.815,3.519c1.581,0.204,2.447,1.02,2.805,1.632
		c0.51,0.918,0.153,1.53-1.071,1.377c-0.918-0.102-2.243,0-3.365,0.153c-1.938,3.314-4.845,8.363-6.63,12.239
		c-0.611,1.377-0.917,2.702-0.917,3.825c0,1.529,0.51,2.6,1.376,2.6c1.989,0,4.641-3.213,6.426-7.037
		c0.561-1.224,1.733-1.326,2.091,0.051c0.255,1.071,0.051,1.836-0.51,3.01c-0.714,1.529-4.131,5.915-8.414,5.915
		c-2.703,0-5.049-2.192-5.049-5.712C79.947,59.766,80.253,58.338,80.967,56.654z"/>
</g>
</svg>
