<?xml version="1.0" encoding="utf-8"?>
<!-- Generator: Adobe Illustrator 16.0.0, SVG Export Plug-In . SVG Version: 6.00 Build 0)  -->
<!DOCTYPE svg PUBLIC "-//W3C//DTD SVG 1.1//EN" "http://www.w3.org/Graphics/SVG/1.1/DTD/svg11.dtd">
<svg version="1.1" id="Layer_1" xmlns="http://www.w3.org/2000/svg" xmlns:xlink="http://www.w3.org/1999/xlink" x="0px" y="0px"
	 width="500px" height="138px" viewBox="0 0 500 138" enable-background="new 0 0 500 138" xml:space="preserve">
<g>
	<path fill="#F4F4F4" stroke="#010101" stroke-width="0.5" stroke-miterlimit="10" d="M251.741,85.713
		c-2.485-0.164-5.633-0.164-9.276,0.164c3.313,15.404-16.729,30.148-25.176,32.469c-3.645,0.99-7.787,1.822-12.259,1.822
		c-5.797,0-11.428-1.324-16.561-5.303c-6.294-4.475-11.597-12.094-11.597-25.838c0-35.281,33.624-66.585,52.34-73.046
		c4.804-1.656,8.449-1.987,12.092-1.987c4.308,0,8.447,1.159,11.265,3.146c7.95,5.798,10.104,13.584,10.104,18.057
		c0,2.484-0.663,5.467-2.154,8.944c-1.821,4.308-4.472,10.764-6.294,15.568c-0.829,2.154-2.815,3.811-5.96,1.326
		c-3.147-2.485-5.964-5.798-5.964-10.934c0-1.823,0.167-3.645,1.49-7.12c4.639-11.926,6.295-16.565,4.474-18.388
		c-4.804-4.968-29.649,9.273-44.557,31.969c-8.78,13.417-11.927,27.498-11.927,38.095c0,12.752,4.142,17.059,9.442,17.059
		c8.78,0,20.542-9.109,28.324-23.682c-4.308,0.824-8.284,1.32-11.594,1.656c-8.613,0.658-14.908-3.146-17.39-8.285
		c-0.994-2.484-0.165-4.139,3.148-4.139c6.626-0.17,13.252-1.322,19.377-2.484c5.633-0.832,10.767-1.824,15.737-1.824
		c9.11-0.168,14.078,3.645,16.396,8.941C256.213,84.389,256.377,86.043,251.741,85.713z"/>
	<path fill="#F4F4F4" stroke="#010101" stroke-width="0.5" stroke-miterlimit="10" d="M283.881,94.822
		c-3.976,0-7.952-1.16-11.761-3.646c-0.995,3.316-1.492,6.795-1.492,9.777c0,7.287,2.982,12.42,7.951,12.42
		c12.588,0,23.685-12.256,30.478-22.531c1.826-2.648,3.975-2.982,5.302,0.334c0.495,1.49,0.662,6.297-2.32,10.766
		c-6.957,10.102-20.206,17.889-33.127,18.055c-15.404,0.168-23.85-9.938-23.85-23.189c0-5.965,1.655-12.418,5.135-19.049
		c8.614-17.553,22.03-26.333,31.636-26.333c2.319,0,4.141,0.332,5.798,1.325c4.638,2.649,7.951,5.302,10.271,8.615
		c0.994,1.491,1.655,3.974,1.655,6.128C309.555,77.432,298.455,94.822,283.881,94.822z M274.438,84.881
		c1.326,0.832,2.484,1.162,3.645,1.162c3.975,0,9.273-4.967,12.587-9.439c4.803-6.461,8.281-14.247,6.459-15.738
		C294.649,58.882,282.391,68.984,274.438,84.881z"/>
	<path fill="#F4F4F4" stroke="#010101" stroke-width="0.5" stroke-miterlimit="10" d="M310.551,87.533
		c3.317-8.113,9.608-21.201,16.234-33.127c-5.135-0.663-8.116-2.485-9.442-4.473c-2.318-3.48-0.663-5.135,3.151-4.97
		c3.809,0.166,8.279,0,11.922-0.332c5.138-8.945,8.615-14.412,12.428-19.877c2.48-3.644,4.472-3.479,6.293-0.332
		c1.16,1.988,1.82,4.804,1.82,6.792c0,2.979-0.66,6.788-2.645,11.43c5.131,0.663,7.947,3.313,9.109,5.301
		c1.656,2.981,0.495,4.97-3.477,4.473c-2.981-0.33-7.289,0-10.932,0.498c-6.296,10.765-15.738,27.165-21.534,39.751
		c-1.985,4.475-2.98,8.779-2.98,12.428c0,4.965,1.656,8.445,4.471,8.445c6.46,0,15.075-10.438,20.869-22.859
		c1.824-3.977,5.632-4.307,6.796,0.166c0.826,3.48,0.164,5.963-1.656,9.777c-2.322,4.967-13.418,19.215-27.331,19.215
		c-8.78,0-16.401-7.121-16.401-18.557C307.241,97.641,308.232,93.002,310.551,87.533z"/>
	<path fill="#F4F4F4" stroke="#010101" stroke-width="0.5" stroke-miterlimit="10" d="M341.36,99.955
		c4.806-14.078,21.537-45.545,36.11-68.899c-3.811-2.154-5.627-5.467-6.294-8.448c-0.499-2.154,0.495-3.148,3.642-3.148
		c9.608,0,16.729-0.993,24.681-2.319c5.799-0.994,11.264-1.656,15.235-1.656c7.956,0,12.593,3.313,14.912,8.945
		c0.826,1.823,0,3.645-3.48,3.645c-8.447-0.166-16.564,1.656-32.462,4.473c-5.469,9.11-11.927,20.537-19.71,34.784
		c3.149-0.497,5.468-0.663,7.948-0.828c9.438-0.663,13.913,2.815,15.404,8.115c0.661,2.322,0.336,3.812-3.312,4.141
		c-7.618,0.666-19.381,2.156-28.491,4.473c-6.129,11.926-10.93,22.197-16.729,34.615c-0.988,2.156-3.312,2.652-5.626,1.16
		c-2.316-1.49-3.811-4.967-3.811-8.945C339.378,107.574,340.041,104.1,341.36,99.955z"/>
	<path fill="#F4F4F4" stroke="#010101" stroke-width="0.5" stroke-miterlimit="10" d="M409.114,119.838
		c-10.1,0-14.572-5.799-14.572-14.084c0-3.146,0.659-6.623,1.981-10.932c4.144-11.592,14.743-30.805,20.875-39.418
		c2.484-3.313,4.473-3.645,6.623-1.161c3.146,3.313,4.473,10.438,0.165,18.72c-3.146,7.117-10.763,19.545-13.583,26.174
		c-1.489,3.807-2.317,7.283-2.317,9.936c0,2.65,0.662,4.143,2.483,4.143c6.629,0,15.239-11.096,20.374-22.367
		c1.325-2.98,3.479-2.646,4.97,0.334c1.491,2.816,1.32,6.959-0.831,11.266C430.313,112.877,418.889,119.838,409.114,119.838z
		 M430.313,35.358c4.64,0,9.111,5.963,9.111,10.769c0,4.472-2.484,8.282-6.626,8.282c-5.301,0-9.772-4.971-9.772-10.104
		C423.026,39.666,426.503,35.358,430.313,35.358z"/>
	<path fill="#F4F4F4" stroke="#010101" stroke-width="0.5" stroke-miterlimit="10" d="M432.803,87.533
		c3.317-8.113,9.606-21.201,16.232-33.127c-5.135-0.663-8.117-2.485-9.438-4.473c-2.323-3.48-0.661-5.135,3.146-4.97
		c3.812,0.166,8.281,0,11.925-0.332c5.133-8.945,8.616-14.412,12.423-19.877c2.486-3.644,4.472-3.479,6.297-0.332
		c1.156,1.988,1.823,4.804,1.823,6.792c0,2.979-0.659,6.788-2.648,11.43c5.135,0.663,7.945,3.313,9.113,5.301
		c1.654,2.981,0.494,4.97-3.482,4.473c-2.982-0.33-7.283,0-10.928,0.498c-6.297,10.765-15.736,27.165-21.535,39.751
		c-1.985,4.475-2.98,8.779-2.98,12.428c0,4.965,1.657,8.445,4.471,8.445c6.459,0,15.074-10.438,20.873-22.859
		c1.82-3.977,5.625-4.307,6.789,0.166c0.83,3.48,0.17,5.963-1.654,9.777c-2.318,4.967-13.417,19.215-27.33,19.215
		c-8.779,0-16.398-7.121-16.398-18.557C429.491,97.641,430.483,93.002,432.803,87.533z"/>
</g>
<g>
	<path fill="#FEE100" d="M144.559,34.737L144.559,34.737c-1.939-1.94-3.448-2.371-5.387-0.431l-11.208,11.423
		c-1.509,1.509-3.665,1.509-5.173,0.216l-15.735-14.657c-1.077-1.078-2.586-1.724-4.095-1.724H79.466l-19.83,18.751
		c-1.94,1.94-2.371,5.389-0.431,7.544c2.155,2.371,5.604,2.155,7.759,0l14.657-15.519h10.777L55.756,81.293H34.633
		c-3.449,0-6.682,2.588-6.897,6.035c-0.216,3.881,2.802,6.896,6.466,6.896h26.08c2.587,0,4.958-1.076,6.897-3.016l14.226-15.305
		L96.71,92.07l-4.096,26.297c-0.646,3.016,0.647,6.25,3.448,7.543c3.88,1.725,7.976-0.432,9.053-4.311l6.251-33.625
		c0.216-1.508-0.216-2.801-1.293-3.879l-17.675-17.89l17.244-17.243l11.423,11.424c1.941,1.939,5.389,1.939,7.328,0l4.958-4.958
		l11.208-12.933C146.715,40.341,146.715,36.892,144.559,34.737"/>
	<path fill="#FEE100" d="M133.998,34.521l-0.216-0.215c-1.94-1.94-0.432-1.94-2.586,0l-8.622,11.423
		c-1.509,1.509-3.664,1.509-5.173,0.215l-18.32-14.657c-1.078-1.078-1.078-1.724-2.587-1.724H79.466l-19.83,18.752
		c-1.94,1.939-2.371,5.389-0.431,7.544c2.155,2.371,1.077,2.156,3.018,0l15.088-15.519h8.621L49.291,81.293H34.634
		c-3.449,0-6.682,2.588-6.897,6.035c-0.215,3.881,2.802,6.896,6.467,6.896h23.709l17.243-18.104L90.243,92.07l-4.095,26.297
		c-0.647,3.016,0.646,6.25,3.449,7.543c3.88,1.725,4.095-0.432,4.957-4.311l5.172-35.996L85.933,66.206l15.734-17.243l10.131,11.423
		c1.939,1.94,4.525-0.862,6.466-2.802l2.155-2.156l13.579-13.579C135.937,39.91,135.937,36.461,133.998,34.521"/>
</g>
<g>
	<path fill="#FAA819" d="M99.511,85.604L94.339,121.6c-0.647,2.803-0.862,4.742-2.586,4.957c3.017,0.215,5.819-1.939,6.465-4.957
		l6.897-35.996L85.933,66.421L99.511,85.604z"/>
	<path fill="#FAA819" d="M140.249,34.521l-0.216-0.215c-1.94-1.94-4.742-1.94-6.897-0.432c0.215,0.215,0.215,0.215,0.431,0.432
		l0.216,0.215c1.94,1.94,1.94,5.173,0,7.328l-13.579,13.579l-2.155,2.155c-1.078,1.078-2.156,2.371-3.449,3.018
		c1.94,1.724,5.172,1.724,7.113-0.215l4.957-4.958l13.58-13.579C142.188,39.91,142.188,36.677,140.249,34.521"/>
</g>
<g>
	<path fill="#58595B" d="M59.636,56.506c-0.215-0.215-0.431-0.431-0.646-0.646c-1.94-2.156-1.725-5.388,0.431-7.544l20.045-18.752
		H73L53.17,48.316c-1.94,1.939-2.371,5.388-0.431,7.544S57.697,58.015,59.636,56.506"/>
	<path fill="#58595B" d="M27.736,87.328c0.215-3.447,3.233-6.033,6.682-6.033h-6.466c-3.448,0-6.682,2.586-6.896,6.033
		c0,3.881,3.017,6.896,6.681,6.896h6.467C30.539,94.225,27.521,91.209,27.736,87.328"/>
</g>
<path fill="#FEE100" d="M124.729,20.942c0-6.035-4.741-10.777-10.776-10.777c-0.216,0-6.466,4.742-6.466,10.777
	c0,0.216,0.432,10.777,6.466,10.777C119.988,31.719,124.729,26.978,124.729,20.942"/>
<g>
	<path fill="#FAA819" d="M118.264,10.165c-0.647,0-1.508,0-2.156,0.215c4.958,1.078,8.622,5.389,8.622,10.562
		c0,5.173-3.664,9.484-8.622,10.562c0.648,0.216,1.509,0.216,2.156,0.216c6.035,0,10.777-4.742,10.777-10.777
		C129.041,14.907,124.298,10.165,118.264,10.165"/>
	<path fill="#FAA819" d="M107.702,22.882c0,0.215,0,0.215,0,0.431C107.702,23.097,107.702,22.882,107.702,22.882"/>
</g>
<path fill="#414042" d="M92.398,128.713c-1.293,0-2.371-0.215-3.664-0.863c-3.664-1.723-5.819-5.818-4.741-10.129l3.88-25.002
	l-12.933-13.58L59.42,95.734c-0.431,0.432-0.862,0.646-1.509,0.646H27.736c-2.371,0-4.526-1.076-6.25-2.586
	c-1.724-1.725-2.587-4.096-2.371-6.467c0.216-4.525,4.095-8.189,9.053-8.189h20.261l7.975-8.838
	c0.862-0.862,2.155-0.862,3.018-0.215c0.862,0.861,0.862,2.154,0.216,3.018l-8.622,9.699c-0.646,0.43-1.077,0.646-1.724,0.646
	H28.168c-2.587,0-4.742,1.725-4.742,4.096c0,1.293,0.431,2.371,1.078,3.232c0.862,0.861,1.94,1.293,3.233,1.293H57.05l16.381-17.459
	c0.431-0.432,1.078-0.646,1.509-0.646c0.646,0,1.078,0.215,1.509,0.646l15.304,15.949c0.432,0.432,0.646,1.078,0.646,1.727
	l-4.095,26.295c-0.432,2.371,0.431,4.525,2.371,5.389c1.293,0.646,2.587,0.432,3.664,0c1.078-0.646,1.939-1.725,2.371-2.803
	l6.466-34.701L84.64,67.93c-0.647-0.647-0.863-1.078-0.863-1.725s0.216-1.078,0.647-1.509l17.243-17.244
	c0.863-0.862,2.156-0.862,3.019,0l11.423,11.424c1.079,1.078,3.018,1.078,4.311,0l18.536-18.537c1.078-1.078,1.078-3.018,0-4.095
	l-0.216-0.215c-1.293-1.293-3.232-1.293-4.31,0l-11.208,11.423c-2.156,2.155-5.82,2.371-8.19,0.215L99.296,33.012
	c-0.646-0.646-1.724-1.078-2.586-1.078H73.863L54.679,50.255c-1.293,1.293-1.293,3.233-0.215,4.526
	c0.646,0.646,1.509,1.078,2.371,1.078l0,0c0.862,0,1.724-0.431,2.156-1.078l14.656-15.519c0.431-0.431,1.078-0.646,1.509-0.646
	h10.777c0.862,0,1.724,0.431,1.939,1.293c0.216,0.862,0.216,1.725-0.431,2.371L70.198,61.68c-0.862,0.862-2.155,1.077-3.018,0.215
	c-0.862-0.862-0.862-2.155-0.215-3.018l14.01-15.734h-4.958l-14.01,14.873c-1.293,1.509-3.233,2.371-5.389,2.371l0,0
	c-2.155,0-4.095-0.862-5.389-2.371c-2.586-2.802-2.371-7.544,0.432-10.562l19.83-18.968c0.431-0.862,0.862-1.078,1.509-1.078h23.493
	c2.156,0,4.096,0.862,5.605,2.155l15.734,14.657c0.647,0.646,1.509,0.646,2.156,0l11.208-11.423c2.801-2.802,7.544-2.802,10.561,0
	l0.216,0.215c2.801,2.802,2.801,7.544,0,10.346l-18.537,18.537c-2.802,2.801-7.544,2.801-10.346,0l-9.915-9.916L88.951,66.207
	l17.89,17.889c0.432,0.432,0.646,1.293,0.646,1.939l-6.682,35.996c-0.646,2.586-2.372,4.74-4.527,5.818
	C94.985,128.498,93.691,128.713,92.398,128.713z"/>
<path fill="#414042" d="M65.671,65.128c0-1.293-0.862-2.156-2.155-2.156s-2.155,0.862-2.155,2.156c0,1.293,0.862,2.155,2.155,2.155
	S65.671,66.421,65.671,65.128"/>
<path fill="#414042" d="M118.264,33.875c-7.113,0-12.933-5.82-12.933-12.933S111.15,8.01,118.264,8.01
	c7.113,0,12.932,5.819,12.932,12.932S125.376,33.875,118.264,33.875z M118.264,12.32c-4.743,0-8.622,3.88-8.622,8.622
	c0,4.742,3.879,8.622,8.622,8.622c4.742,0,8.621-3.88,8.621-8.622C126.885,16.2,123.006,12.32,118.264,12.32z"/>
<g>
</g>
<g>
</g>
<g>
</g>
<g>
</g>
<g>
</g>
<g>
</g>
</svg>
